G04*
G04 #@! TF.GenerationSoftware,Altium Limited,Altium Designer,24.6.1 (21)*
G04*
G04 Layer_Color=128*
%FSLAX44Y44*%
%MOMM*%
G71*
G04*
G04 #@! TF.SameCoordinates,7DB87AFF-7CBC-4857-802F-EC09E7027B42*
G04*
G04*
G04 #@! TF.FilePolarity,Positive*
G04*
G01*
G75*
%ADD15R,1.0621X1.1350*%
%ADD16R,1.1350X1.0621*%
%ADD17R,0.7000X0.4000*%
%ADD19R,0.7500X0.9000*%
%ADD26R,0.9000X0.7500*%
%ADD46R,1.5250X0.7000*%
%ADD47R,1.5500X2.1000*%
%ADD48R,0.9581X0.9621*%
%ADD49R,2.3000X2.3000*%
%ADD50R,1.0582X1.2061*%
%ADD51O,3.0000X1.8000*%
%ADD52R,0.9000X0.8000*%
%ADD53R,0.9621X0.9350*%
%ADD54C,3.6549*%
%ADD55R,0.8200X0.4100*%
%ADD56R,0.6000X1.3500*%
G36*
X301443Y137305D02*
X324543D01*
Y142000D01*
X329643D01*
Y92000D01*
X324543D01*
Y96695D01*
X301443D01*
Y90745D01*
X295343D01*
Y96695D01*
X288243D01*
Y117000D01*
Y137305D01*
X295343D01*
Y143255D01*
X301443D01*
Y137305D01*
D02*
G37*
G36*
Y247305D02*
X324543D01*
Y252000D01*
X329643D01*
Y202000D01*
X324543D01*
Y206695D01*
X301443D01*
Y200745D01*
X295343D01*
Y206695D01*
X288243D01*
Y227000D01*
Y247305D01*
X295343D01*
Y253255D01*
X301443D01*
Y247305D01*
D02*
G37*
D15*
X234000Y82154D02*
D03*
Y65846D02*
D03*
Y175846D02*
D03*
X155000Y118154D02*
D03*
Y101846D02*
D03*
Y154154D02*
D03*
Y137846D02*
D03*
X94000Y310154D02*
D03*
Y293846D02*
D03*
X254000Y192154D02*
D03*
Y175846D02*
D03*
X234000Y192154D02*
D03*
X254000Y65846D02*
D03*
Y82154D02*
D03*
D16*
X286154Y380000D02*
D03*
X234846Y342000D02*
D03*
X251154D02*
D03*
X286154Y361000D02*
D03*
X269846D02*
D03*
X234846D02*
D03*
X251154D02*
D03*
X251154Y380000D02*
D03*
X234846D02*
D03*
X269846D02*
D03*
X128154Y257000D02*
D03*
X111846D02*
D03*
X128154Y242000D02*
D03*
X111846D02*
D03*
D17*
X143000Y178500D02*
D03*
Y171500D02*
D03*
D19*
X272000Y342000D02*
D03*
X284000D02*
D03*
X79000Y346000D02*
D03*
X67000D02*
D03*
D26*
X155000Y179000D02*
D03*
Y167000D02*
D03*
X94000Y244000D02*
D03*
Y256000D02*
D03*
Y280000D02*
D03*
Y268000D02*
D03*
X109000Y300000D02*
D03*
Y312000D02*
D03*
D46*
X22380Y306086D02*
D03*
Y293386D02*
D03*
Y280686D02*
D03*
Y267986D02*
D03*
Y255286D02*
D03*
Y242586D02*
D03*
X76620D02*
D03*
Y255286D02*
D03*
Y267986D02*
D03*
Y280686D02*
D03*
Y293386D02*
D03*
Y306086D02*
D03*
Y318786D02*
D03*
Y331486D02*
D03*
X22380Y318786D02*
D03*
Y331486D02*
D03*
D47*
X176298Y196001D02*
D03*
X201698D02*
D03*
Y110001D02*
D03*
X176298D02*
D03*
D48*
X36730Y347000D02*
D03*
X51270D02*
D03*
D49*
X324000Y177000D02*
D03*
X279000D02*
D03*
X324000Y67000D02*
D03*
X279000D02*
D03*
D50*
X155000Y190989D02*
D03*
Y207011D02*
D03*
D51*
X142000Y282000D02*
D03*
Y370000D02*
D03*
Y304000D02*
D03*
Y348000D02*
D03*
X142000Y326000D02*
D03*
D52*
X112000Y334000D02*
D03*
X92000Y343500D02*
D03*
Y324500D02*
D03*
D53*
X110000Y272846D02*
D03*
Y287154D02*
D03*
D54*
X309000Y117000D02*
D03*
Y227000D02*
D03*
D55*
X271243Y136050D02*
D03*
Y123350D02*
D03*
Y110650D02*
D03*
Y97950D02*
D03*
Y246050D02*
D03*
Y233350D02*
D03*
Y220650D02*
D03*
Y207950D02*
D03*
D56*
X247000Y241000D02*
D03*
X237500Y217000D02*
D03*
X256500D02*
D03*
X247000Y131000D02*
D03*
X237500Y107000D02*
D03*
X256500D02*
D03*
M02*
