G04*
G04 #@! TF.GenerationSoftware,Altium Limited,Altium Designer,24.6.1 (21)*
G04*
G04 Layer_Color=32896*
%FSLAX44Y44*%
%MOMM*%
G71*
G04*
G04 #@! TF.SameCoordinates,7DB87AFF-7CBC-4857-802F-EC09E7027B42*
G04*
G04*
G04 #@! TF.FilePolarity,Positive*
G04*
G01*
G75*
%ADD10C,0.2000*%
%ADD41C,0.2540*%
D10*
X278650Y196700D02*
X324350D01*
X278650Y157300D02*
X324350D01*
Y191500D02*
Y196700D01*
X278650Y191500D02*
Y196700D01*
Y157300D02*
Y162500D01*
X324350Y157300D02*
Y162500D01*
X278650Y86700D02*
X324350D01*
X278650Y47300D02*
X324350D01*
Y81500D02*
Y86700D01*
X278650Y81500D02*
Y86700D01*
Y47300D02*
Y52500D01*
X324350Y47300D02*
Y52500D01*
X276043Y129150D02*
Y130250D01*
Y116450D02*
Y117550D01*
Y103750D02*
Y104850D01*
Y239150D02*
Y240250D01*
Y226450D02*
Y227550D01*
Y213750D02*
Y214850D01*
X20666Y351998D02*
X27331D01*
Y342002D01*
X20666D01*
X27331Y347000D02*
X23998D01*
X17334Y342002D02*
Y351998D01*
X10669Y342002D01*
Y351998D01*
X191000Y242997D02*
Y233000D01*
Y237998D01*
X184335D01*
Y242997D01*
Y233000D01*
X181003Y242997D02*
X174339Y233000D01*
Y242997D02*
X181003Y233000D01*
X171006Y242997D02*
X164342D01*
Y241331D01*
X171006Y234666D01*
Y233000D01*
X161010D02*
X157677D01*
X159344D01*
Y242997D01*
X161010Y241331D01*
X152679Y233000D02*
X149347D01*
X151013D01*
Y242997D01*
X152679Y241331D01*
X183994Y373332D02*
X185660Y374998D01*
X188992D01*
X190658Y373332D01*
Y366668D01*
X188992Y365002D01*
X185660D01*
X183994Y366668D01*
Y370000D01*
X187326D01*
X180661Y365002D02*
Y374998D01*
X173997Y365002D01*
Y374998D01*
X170665D02*
Y365002D01*
X165666D01*
X164000Y366668D01*
Y373332D01*
X165666Y374998D01*
X170665D01*
X173997Y352998D02*
X180661D01*
Y343002D01*
X173997D01*
X180661Y348000D02*
X177329D01*
X170665D02*
X164000D01*
X167332Y351332D02*
Y344668D01*
X173997Y330998D02*
X180661D01*
Y321002D01*
X173997D01*
X180661Y326000D02*
X177329D01*
X170665D02*
X164000D01*
X173997Y307332D02*
X175663Y308998D01*
X178995D01*
X180661Y307332D01*
Y305666D01*
X178995Y304000D01*
X175663D01*
X173997Y302334D01*
Y300668D01*
X175663Y299002D01*
X178995D01*
X180661Y300668D01*
X170665Y304000D02*
X164000D01*
X173997Y285332D02*
X175663Y286998D01*
X178995D01*
X180661Y285332D01*
Y283666D01*
X178995Y282000D01*
X175663D01*
X173997Y280334D01*
Y278668D01*
X175663Y277002D01*
X178995D01*
X180661Y278668D01*
X170665Y282000D02*
X164000D01*
X167332Y285332D02*
Y278668D01*
D41*
X199000Y225000D02*
Y390000D01*
X10000Y225000D02*
X199000D01*
M02*
