M48
;Layer_Color=9474304
;FILE_FORMAT=4:4
METRIC,LZ
;TYPE=PLATED
T01F00S00C0.3000
T02F00S00C1.8000
T03F00S00C2.2000
%
T01
X0008995Y0002788
X0011535
X0012805Y0008212
X00093846Y00104
X00076Y00069
X00016Y00106
X00155Y00137846
X00187871Y00135377
X00215Y0014
X00231Y00121
X00256Y0013
X00262
X00268Y0012846
X00275
X00280433Y00131814
X003Y00119
Y00109
X0031
Y00119
X0032
X00329641Y00118879
Y00108879
X0032Y00109
X00326Y00046
X00346
X00366
X00356Y00066
Y00026
X00336
X00316
X00296
X00276
X00256
X00236
X00216
X00196
X00146Y000245
X00171Y00076
X00186Y00086
X00306Y00046
X00386Y00086
X00406
X00396Y00106
X0038527Y00173
X00366Y00206
X0034Y00204
X00329641Y00230879
X0032Y00231
X0031
Y00241
X003
Y00231
X0032Y00241
X00329641Y00240879
X00343315Y00260315
X00366Y00286
X00386Y00246
X00406
X00396Y00226
X00406Y00326
X00396Y00346
X00366Y00366
X00346
X00356Y00386
X00336
X00285789Y0038
X00304Y00331
X0029927Y00298
X00276Y00306
X00276846Y0028
X00252Y00275
X00224Y00326
X00186Y00326
X00196Y00346
X00176
X00186Y00366
X00166
X00166Y00277
Y00264
X00195Y00246
X00156Y00226
X00186Y00166
X00229Y00153
X00265Y00151
X00271
X00277
Y00169
Y00177
Y00184
X00269
Y00177
Y00169
X00283Y00172
Y0018
X00298Y00185
Y00191
X00299Y00165
Y00159
Y00153
X00196Y00306
X00136Y00226
X00116
X00096
X00076
X00086Y00206
X00106
X00126
X00116Y00186
X00096
Y00146
X00076
X00038163Y00186271
X0004Y00233
X00040625Y00259
X00038Y00325
T02
X00336Y0031
X0039
T03
X00021Y00021
X00399
Y00379
X00021
M30
