G04*
G04 #@! TF.GenerationSoftware,Altium Limited,Altium Designer,24.9.1 (31)*
G04*
G04 Layer_Color=8421504*
%FSLAX44Y44*%
%MOMM*%
G71*
G04*
G04 #@! TF.SameCoordinates,72FE2189-96E8-42F3-8E64-FE2F012302BB*
G04*
G04*
G04 #@! TF.FilePolarity,Positive*
G04*
G01*
G75*
%ADD11C,1.5000*%
%ADD12R,0.5000X1.0750*%
%ADD13R,2.2000X1.6000*%
%ADD14R,1.3000X1.1000*%
%ADD15O,4.5000X2.8000*%
%ADD16R,1.0621X1.1350*%
%ADD17R,0.7500X0.9000*%
%ADD18R,1.1350X1.0621*%
%ADD19R,0.8000X0.6000*%
%ADD20R,1.1000X1.3500*%
%ADD21R,4.5000X1.6000*%
%ADD22R,3.4500X2.5600*%
%ADD23R,0.7000X1.5250*%
%ADD24R,1.3500X1.1000*%
%ADD25R,0.9000X0.7500*%
D11*
X254000Y309000D02*
D03*
X307000Y379000D02*
D03*
X24000Y349000D02*
D03*
X302000D02*
D03*
X13000Y82000D02*
D03*
X147000Y104000D02*
D03*
D12*
X169000Y52620D02*
D03*
Y29380D02*
D03*
D13*
X224090Y198800D02*
D03*
Y224200D02*
D03*
Y249600D02*
D03*
Y275000D02*
D03*
Y300400D02*
D03*
Y351200D02*
D03*
Y376600D02*
D03*
X53910Y325800D02*
D03*
Y351200D02*
D03*
Y376600D02*
D03*
X224090Y325800D02*
D03*
Y173400D02*
D03*
X53910D02*
D03*
Y198800D02*
D03*
Y224200D02*
D03*
Y249600D02*
D03*
X53900Y275000D02*
D03*
X53910Y300400D02*
D03*
D14*
X12000Y161500D02*
D03*
Y140500D02*
D03*
X31000D02*
D03*
Y161500D02*
D03*
D15*
X315000Y158000D02*
D03*
Y192000D02*
D03*
X266000Y219000D02*
D03*
X315000Y236000D02*
D03*
Y114000D02*
D03*
X266000Y97000D02*
D03*
Y175000D02*
D03*
Y141000D02*
D03*
X315000Y70000D02*
D03*
X266000Y53000D02*
D03*
D16*
X13000Y192154D02*
D03*
Y175846D02*
D03*
X30000Y192154D02*
D03*
Y175846D02*
D03*
D17*
X74000Y22000D02*
D03*
X62000D02*
D03*
D18*
X93846Y104000D02*
D03*
X110154D02*
D03*
Y125000D02*
D03*
X93846D02*
D03*
D19*
X76500Y37000D02*
D03*
X51500D02*
D03*
D20*
X60500Y115000D02*
D03*
X27500D02*
D03*
D21*
X54000Y54500D02*
D03*
Y93500D02*
D03*
D22*
X109000Y55000D02*
D03*
D23*
X89950Y82120D02*
D03*
X102650D02*
D03*
X115350D02*
D03*
X128050D02*
D03*
Y27880D02*
D03*
X115350D02*
D03*
X102650D02*
D03*
X89950D02*
D03*
D24*
X146000Y24500D02*
D03*
Y57500D02*
D03*
D25*
X144000Y73000D02*
D03*
Y85000D02*
D03*
X129000Y112000D02*
D03*
Y100000D02*
D03*
X75000Y123000D02*
D03*
Y111000D02*
D03*
M02*
