M48
;Layer_Color=9474304
;FILE_FORMAT=4:4
METRIC,LZ
;TYPE=PLATED
T01F00S00C0.3000
T02F00S00C1.8000
T03F00S00C2.2000
%
T01
X00046Y00016
X0008995Y0002788
X0011535
X0012805Y0008212
X00093846Y00104
X00076Y00069
X00046Y00076
X00031
X000235Y00091
X000385Y00121
X00061Y00136
X00155Y00137846
Y00119
X00188Y00141
X00196Y00136
X00215Y0014
X002335Y00121
X00256Y0013
X00262
X00268Y0012846
X00275
X00280433Y00131814
X003Y00119
Y00109
X0031
Y00119
X0032
X00329641Y00118879
Y00108879
X0032Y00109
X002935Y00031
X00286Y00016
X00301
X00271
X00256
X00241
X002335Y00031
X002185
X002035
X001885
X001735
X001585
X00146Y000245
X00151Y00046
X00181
Y00016
X00196
X00211
X00222Y00069
X00171Y00076
X001735Y00151
X001885
X00181Y00166
X00196
X002035Y00181
Y00211
Y00241
X00196Y00256
X002035Y00271
X00196Y00286
X002035Y00301
X001885
X00181Y00316
X00196
X002035Y00331
X001885
X00196Y00346
X002035Y00361
X001885
X001735
X00196Y00376
X0022409Y003258
X002485Y00331
X002635
X00286Y00316
X003085Y00331
X003235
X00319Y00352
X00301Y00346
X003085Y00271
X003235
X00331Y00286
X00329641Y00240879
X0032Y00241
Y00231
X00329641Y00230879
X0031Y00231
Y00241
X003
Y00231
X00298Y00191
Y00185
X00283Y0018
Y00172
X00277Y00169
Y00177
Y00184
X00269
Y00177
Y00169
X00271Y00151
X00265
X00277
X00299Y00153
Y00159
Y00165
X0034Y00204
X00271Y00256
X00241Y00286
X00166Y00277
Y00264
X00151Y00256
X001435Y00241
X00151Y00226
X00166
X001435Y00211
Y00151
X00229Y00153
X001285Y00151
X00121Y00166
X001285Y00181
X001135
X000985
X00091Y00196
X00106
X00121
X00136
X001285Y00211
X001135
X000985
X000835
X00076Y00226
X00091
X00106
X00121
X00136
X00076Y00196
X00038163Y00186271
X0004Y00233
X00040625Y00259
X00038Y00325
X000835Y00361
X000985
X00106Y00346
X00121Y00376
Y00316
X000985Y00151
X000835
T02
X00266Y0031
X0032
T03
X00021Y00021
X00329
Y00379
X00021
M30
