G04*
G04 #@! TF.GenerationSoftware,Altium Limited,Altium Designer,24.6.1 (21)*
G04*
G04 Layer_Color=8388736*
%FSLAX44Y44*%
%MOMM*%
G71*
G04*
G04 #@! TF.SameCoordinates,7DB87AFF-7CBC-4857-802F-EC09E7027B42*
G04*
G04*
G04 #@! TF.FilePolarity,Negative*
G04*
G01*
G75*
%ADD15R,1.0621X1.1350*%
%ADD16R,1.1350X1.0621*%
%ADD19R,0.7500X0.9000*%
%ADD21R,1.1000X1.3500*%
%ADD25R,1.3500X1.1000*%
%ADD26R,0.9000X0.7500*%
%ADD27R,2.4032X1.8032*%
%ADD28R,1.5032X1.3032*%
%ADD29O,4.7032X3.0032*%
%ADD30C,1.7032*%
%ADD31R,0.9032X0.6032*%
%ADD32R,1.2032X0.9032*%
%ADD33R,1.0032X0.8032*%
%ADD34R,4.7032X1.8032*%
%ADD35R,3.6532X2.7632*%
%ADD36R,0.9032X1.7282*%
%ADD37C,2.8032*%
%ADD38C,3.7032*%
%ADD39C,0.8032*%
D15*
X13000Y192154D02*
D03*
Y175846D02*
D03*
X30000Y192154D02*
D03*
Y175846D02*
D03*
D16*
X188846Y74000D02*
D03*
X205154D02*
D03*
X93846Y104000D02*
D03*
X110154D02*
D03*
Y125000D02*
D03*
X93846D02*
D03*
D19*
X74000Y22000D02*
D03*
X62000D02*
D03*
D21*
X60500Y115000D02*
D03*
X27500D02*
D03*
D25*
X146000Y24500D02*
D03*
Y57500D02*
D03*
D26*
X144000Y73000D02*
D03*
Y85000D02*
D03*
X129000Y112000D02*
D03*
Y100000D02*
D03*
X75000Y123000D02*
D03*
Y111000D02*
D03*
D27*
X224090Y198800D02*
D03*
Y224200D02*
D03*
Y249600D02*
D03*
Y275000D02*
D03*
Y300400D02*
D03*
Y351200D02*
D03*
Y376600D02*
D03*
X53910Y325800D02*
D03*
Y351200D02*
D03*
Y376600D02*
D03*
X224090Y325800D02*
D03*
Y173400D02*
D03*
X53910D02*
D03*
Y198800D02*
D03*
Y224200D02*
D03*
Y249600D02*
D03*
X53900Y275000D02*
D03*
X53910Y300400D02*
D03*
D28*
X12000Y161500D02*
D03*
Y140500D02*
D03*
X31000D02*
D03*
Y161500D02*
D03*
D29*
X315000Y158000D02*
D03*
Y192000D02*
D03*
X266000Y219000D02*
D03*
X315000Y236000D02*
D03*
Y114000D02*
D03*
X266000Y97000D02*
D03*
Y175000D02*
D03*
Y141000D02*
D03*
X315000Y70000D02*
D03*
X266000Y53000D02*
D03*
D30*
X292000Y379000D02*
D03*
X24000Y349000D02*
D03*
X254000Y266000D02*
D03*
X282000D02*
D03*
X13000Y82000D02*
D03*
X147000Y104000D02*
D03*
D31*
X160000Y75500D02*
D03*
Y82500D02*
D03*
D32*
X168000Y54500D02*
D03*
X228000D02*
D03*
X168000Y17500D02*
D03*
X228000D02*
D03*
D33*
X76500Y37000D02*
D03*
X51500D02*
D03*
D34*
X54000Y54500D02*
D03*
Y93500D02*
D03*
D35*
X109000Y55000D02*
D03*
D36*
X89950Y82120D02*
D03*
X102650D02*
D03*
X115350D02*
D03*
X128050D02*
D03*
Y27880D02*
D03*
X115350D02*
D03*
X102650D02*
D03*
X89950D02*
D03*
D37*
X320000Y310000D02*
D03*
X266000D02*
D03*
D38*
X329000Y379000D02*
D03*
Y21000D02*
D03*
X21000D02*
D03*
Y379000D02*
D03*
D39*
X38163Y186271D02*
D03*
X283000Y172000D02*
D03*
Y180000D02*
D03*
X76000Y69000D02*
D03*
X298000Y185000D02*
D03*
X331000Y286000D02*
D03*
X323500Y331000D02*
D03*
Y271000D02*
D03*
X301000Y346000D02*
D03*
X308500Y331000D02*
D03*
Y271000D02*
D03*
X301000Y16000D02*
D03*
X286000Y316000D02*
D03*
X293500Y31000D02*
D03*
X286000Y16000D02*
D03*
X271000Y256000D02*
D03*
Y16000D02*
D03*
X263500Y331000D02*
D03*
X256000Y16000D02*
D03*
X248500Y331000D02*
D03*
X241000Y286000D02*
D03*
Y16000D02*
D03*
X233500Y121000D02*
D03*
Y31000D02*
D03*
X218500D02*
D03*
X211000Y16000D02*
D03*
X196000Y376000D02*
D03*
X203500Y361000D02*
D03*
X196000Y346000D02*
D03*
X203500Y331000D02*
D03*
X196000Y316000D02*
D03*
X203500Y301000D02*
D03*
X196000Y286000D02*
D03*
X203500Y271000D02*
D03*
X196000Y256000D02*
D03*
X203500Y241000D02*
D03*
Y211000D02*
D03*
Y181000D02*
D03*
X196000Y166000D02*
D03*
Y136000D02*
D03*
X203500Y31000D02*
D03*
X196000Y16000D02*
D03*
X188500Y361000D02*
D03*
Y331000D02*
D03*
X181000Y316000D02*
D03*
X188500Y301000D02*
D03*
X181000Y166000D02*
D03*
X188500Y151000D02*
D03*
X181000Y46000D02*
D03*
X188500Y31000D02*
D03*
X181000Y16000D02*
D03*
X173500Y361000D02*
D03*
X166000Y226000D02*
D03*
X173500Y151000D02*
D03*
Y31000D02*
D03*
X151000Y256000D02*
D03*
Y226000D02*
D03*
Y46000D02*
D03*
X158500Y31000D02*
D03*
X143500Y241000D02*
D03*
X136000Y226000D02*
D03*
X143500Y211000D02*
D03*
X136000Y196000D02*
D03*
X143500Y151000D02*
D03*
X121000Y376000D02*
D03*
Y316000D02*
D03*
Y226000D02*
D03*
X128500Y211000D02*
D03*
X121000Y196000D02*
D03*
X128500Y181000D02*
D03*
X121000Y166000D02*
D03*
X128500Y151000D02*
D03*
X106000Y346000D02*
D03*
Y226000D02*
D03*
X113500Y211000D02*
D03*
X106000Y196000D02*
D03*
X113500Y181000D02*
D03*
X98500Y361000D02*
D03*
X91000Y226000D02*
D03*
X98500Y211000D02*
D03*
X91000Y196000D02*
D03*
X98500Y181000D02*
D03*
Y151000D02*
D03*
X83500Y361000D02*
D03*
X76000Y226000D02*
D03*
X83500Y211000D02*
D03*
X76000Y196000D02*
D03*
X83500Y151000D02*
D03*
X61000Y136000D02*
D03*
X46000Y76000D02*
D03*
Y16000D02*
D03*
X38500Y121000D02*
D03*
X31000Y76000D02*
D03*
X23500Y91000D02*
D03*
X229000Y153000D02*
D03*
X215000Y140000D02*
D03*
X222000Y69000D02*
D03*
X188000Y141000D02*
D03*
X268000Y128460D02*
D03*
X275000D02*
D03*
X280433Y131814D02*
D03*
X262000Y130000D02*
D03*
X256000D02*
D03*
X224090Y325800D02*
D03*
X38000Y325000D02*
D03*
X171000Y76000D02*
D03*
X155000Y137846D02*
D03*
Y119000D02*
D03*
X166000Y264000D02*
D03*
Y277000D02*
D03*
X40625Y259000D02*
D03*
X40000Y233000D02*
D03*
X340000Y204000D02*
D03*
X319000Y352000D02*
D03*
X265000Y151000D02*
D03*
X271000D02*
D03*
X277000D02*
D03*
X298000Y191000D02*
D03*
X299000Y165000D02*
D03*
Y159000D02*
D03*
Y153000D02*
D03*
X269000Y184000D02*
D03*
X277000Y169000D02*
D03*
Y177000D02*
D03*
Y184000D02*
D03*
X269000Y177000D02*
D03*
Y169000D02*
D03*
X329641Y108879D02*
D03*
Y118879D02*
D03*
X300000Y109000D02*
D03*
X320000Y119000D02*
D03*
X310000D02*
D03*
X300000D02*
D03*
X310000Y109000D02*
D03*
X320000D02*
D03*
X320000Y231000D02*
D03*
X310000D02*
D03*
X300000Y241000D02*
D03*
X310000D02*
D03*
X320000D02*
D03*
X300000Y231000D02*
D03*
X329641Y240879D02*
D03*
Y230879D02*
D03*
X115350Y27880D02*
D03*
X146000Y24500D02*
D03*
X128050Y82120D02*
D03*
X93846Y104000D02*
D03*
X89950Y27880D02*
D03*
M02*
