G04*
G04 #@! TF.GenerationSoftware,Altium Limited,Altium Designer,24.9.1 (31)*
G04*
G04 Layer_Color=32896*
%FSLAX44Y44*%
%MOMM*%
G71*
G04*
G04 #@! TF.SameCoordinates,72FE2189-96E8-42F3-8E64-FE2F012302BB*
G04*
G04*
G04 #@! TF.FilePolarity,Positive*
G04*
G01*
G75*
%ADD10C,0.2000*%
%ADD38C,0.2540*%
D10*
X20666Y351998D02*
X27331D01*
Y342002D01*
X20666D01*
X27331Y347000D02*
X23998D01*
X17334Y342002D02*
Y351998D01*
X10669Y342002D01*
Y351998D01*
X191000Y242997D02*
Y233000D01*
Y237998D01*
X184335D01*
Y242997D01*
Y233000D01*
X181003Y242997D02*
X174339Y233000D01*
Y242997D02*
X181003Y233000D01*
X171006Y242997D02*
X164342D01*
Y241331D01*
X171006Y234666D01*
Y233000D01*
X161010D02*
X157677D01*
X159344D01*
Y242997D01*
X161010Y241331D01*
X152679Y233000D02*
X149347D01*
X151013D01*
Y242997D01*
X152679Y241331D01*
X183994Y373332D02*
X185660Y374998D01*
X188992D01*
X190658Y373332D01*
Y366668D01*
X188992Y365002D01*
X185660D01*
X183994Y366668D01*
Y370000D01*
X187326D01*
X180661Y365002D02*
Y374998D01*
X173997Y365002D01*
Y374998D01*
X170665D02*
Y365002D01*
X165666D01*
X164000Y366668D01*
Y373332D01*
X165666Y374998D01*
X170665D01*
X173997Y352998D02*
X180661D01*
Y343002D01*
X173997D01*
X180661Y348000D02*
X177329D01*
X170665D02*
X164000D01*
X167332Y351332D02*
Y344668D01*
X173997Y330998D02*
X180661D01*
Y321002D01*
X173997D01*
X180661Y326000D02*
X177329D01*
X170665D02*
X164000D01*
X173997Y307332D02*
X175663Y308998D01*
X178995D01*
X180661Y307332D01*
Y305666D01*
X178995Y304000D01*
X175663D01*
X173997Y302334D01*
Y300668D01*
X175663Y299002D01*
X178995D01*
X180661Y300668D01*
X170665Y304000D02*
X164000D01*
X173997Y285332D02*
X175663Y286998D01*
X178995D01*
X180661Y285332D01*
Y283666D01*
X178995Y282000D01*
X175663D01*
X173997Y280334D01*
Y278668D01*
X175663Y277002D01*
X178995D01*
X180661Y278668D01*
X170665Y282000D02*
X164000D01*
X167332Y285332D02*
Y278668D01*
D38*
X199000Y225000D02*
Y390000D01*
X10000Y225000D02*
X199000D01*
M02*
