G04*
G04 #@! TF.GenerationSoftware,Altium Limited,Altium Designer,24.9.1 (31)*
G04*
G04 Layer_Physical_Order=1*
G04 Layer_Color=255*
%FSLAX44Y44*%
%MOMM*%
G71*
G04*
G04 #@! TF.SameCoordinates,72FE2189-96E8-42F3-8E64-FE2F012302BB*
G04*
G04*
G04 #@! TF.FilePolarity,Positive*
G04*
G01*
G75*
%ADD10C,0.2000*%
%ADD11C,1.5000*%
%ADD12R,0.5000X1.0750*%
%ADD13R,2.2000X1.6000*%
%ADD14R,1.3000X1.1000*%
%ADD15O,4.5000X2.8000*%
%ADD16R,1.0621X1.1350*%
%ADD17R,0.7500X0.9000*%
%ADD18R,1.1350X1.0621*%
%ADD19R,0.8000X0.6000*%
%ADD20R,1.1000X1.3500*%
%ADD21R,4.5000X1.6000*%
%ADD22R,3.4500X2.5600*%
%ADD23R,0.7000X1.5250*%
%ADD24R,1.3500X1.1000*%
%ADD25R,0.9000X0.7500*%
%ADD37C,0.4000*%
%ADD38C,0.2540*%
%ADD39C,2.6000*%
%ADD40C,3.5000*%
%ADD41C,0.6000*%
G36*
X388627Y396178D02*
X387812Y395743D01*
X384761Y393239D01*
X382257Y390187D01*
X380396Y386706D01*
X379250Y382929D01*
X378863Y379000D01*
X379250Y375071D01*
X380396Y371294D01*
X382257Y367812D01*
X384761Y364761D01*
X387812Y362257D01*
X391294Y360396D01*
X395071Y359250D01*
X399000Y358863D01*
X402929Y359250D01*
X406706Y360396D01*
X410187Y362257D01*
X413239Y364761D01*
X415743Y367812D01*
X416178Y368627D01*
X417410Y368318D01*
Y31682D01*
X416178Y31373D01*
X415743Y32188D01*
X413239Y35239D01*
X410187Y37743D01*
X406706Y39604D01*
X402929Y40750D01*
X399000Y41137D01*
X395071Y40750D01*
X391294Y39604D01*
X387812Y37743D01*
X384761Y35239D01*
X382257Y32188D01*
X380396Y28706D01*
X379250Y24929D01*
X378863Y21000D01*
X379250Y17071D01*
X380396Y13294D01*
X382257Y9812D01*
X384761Y6761D01*
X387812Y4257D01*
X388627Y3822D01*
X388318Y2590D01*
X31682D01*
X31373Y3822D01*
X32188Y4257D01*
X35239Y6761D01*
X37743Y9812D01*
X39604Y13294D01*
X40750Y17071D01*
X41137Y21000D01*
X40750Y24929D01*
X39604Y28706D01*
X37743Y32188D01*
X35239Y35239D01*
X32188Y37743D01*
X28706Y39604D01*
X24929Y40750D01*
X21538Y41084D01*
Y64871D01*
X2590D01*
Y77578D01*
X3860Y77831D01*
X4230Y76937D01*
X5839Y74839D01*
X7937Y73230D01*
X10379Y72218D01*
X10500Y72203D01*
Y82000D01*
Y91798D01*
X10379Y91782D01*
X7937Y90770D01*
X5839Y89161D01*
X4230Y87063D01*
X3860Y86169D01*
X2590Y86422D01*
Y131343D01*
X2960Y132460D01*
X13606D01*
X13641Y132283D01*
X14483Y131023D01*
X17253Y128253D01*
X18513Y127411D01*
X20000Y127115D01*
X39000D01*
X40487Y127411D01*
X41747Y128253D01*
X72747Y159253D01*
X73589Y160513D01*
X73885Y162000D01*
Y185710D01*
X73589Y187197D01*
X72747Y188457D01*
X67450Y193754D01*
Y209340D01*
X40370D01*
Y192775D01*
X39100Y191733D01*
X38163Y191919D01*
X37851Y192175D01*
Y200369D01*
X31629D01*
Y312083D01*
X39100Y319554D01*
X39147Y319553D01*
X40370Y318528D01*
Y315260D01*
X67450D01*
Y336340D01*
X42362D01*
X42277Y336771D01*
X41273Y338273D01*
X41273Y338273D01*
X33602Y345945D01*
X33782Y346379D01*
X34127Y349000D01*
X33782Y351621D01*
X32770Y354063D01*
X31161Y356161D01*
X29063Y357770D01*
X27102Y358582D01*
X27168Y359929D01*
X28706Y360396D01*
X32188Y362257D01*
X35239Y364761D01*
X37743Y367812D01*
X39100Y370351D01*
X40370Y370033D01*
Y366060D01*
X67450D01*
Y371371D01*
X103083D01*
X176371Y298083D01*
Y216366D01*
X99484Y139480D01*
X72180D01*
X72180Y139480D01*
X70409Y139127D01*
X68907Y138124D01*
X68907Y138124D01*
X60727Y129944D01*
X59723Y128442D01*
X59371Y126671D01*
X59371Y126670D01*
Y124290D01*
X52460D01*
Y105710D01*
X55871D01*
Y104040D01*
X28960D01*
Y82960D01*
X79040D01*
Y104040D01*
X80033Y104710D01*
X82040D01*
Y119371D01*
X85631D01*
Y117149D01*
X89217D01*
Y111851D01*
X85631D01*
Y96149D01*
X102061D01*
Y111851D01*
X98475D01*
Y117149D01*
X111823D01*
X118495Y110477D01*
X119997Y109473D01*
X121769Y109121D01*
X121960Y107887D01*
Y105710D01*
X135817D01*
X137000Y104962D01*
X136873Y104000D01*
X137218Y101379D01*
X138230Y98937D01*
X139839Y96839D01*
X141937Y95230D01*
X144379Y94218D01*
X147000Y93873D01*
X149621Y94218D01*
X152063Y95230D01*
X154161Y96839D01*
X155770Y98937D01*
X156782Y101379D01*
X157127Y104000D01*
X156782Y106621D01*
X155770Y109063D01*
X154161Y111161D01*
X152063Y112770D01*
X149621Y113782D01*
X147000Y114127D01*
X144379Y113782D01*
X143945Y113602D01*
X142273Y115273D01*
X140771Y116277D01*
X139000Y116629D01*
X139000Y116629D01*
X136040D01*
Y118290D01*
X127697D01*
X127250Y118379D01*
X127250Y118379D01*
X123686D01*
X118369Y123696D01*
Y132851D01*
X109883D01*
X109752Y133047D01*
X109752Y133047D01*
X107948Y134851D01*
X184273Y211176D01*
X184273Y211176D01*
X185277Y212677D01*
X185629Y214449D01*
Y300000D01*
X185629Y300000D01*
X185277Y301771D01*
X184273Y303273D01*
X184273Y303273D01*
X108273Y379273D01*
X106771Y380277D01*
X105000Y380629D01*
X105000Y380629D01*
X67450D01*
Y387140D01*
X40370D01*
X40370Y387140D01*
Y387140D01*
X39193Y387475D01*
X37743Y390187D01*
X35239Y393239D01*
X32188Y395743D01*
X31373Y396178D01*
X31682Y397410D01*
X388318D01*
X388627Y396178D01*
D02*
G37*
%LPC*%
G36*
X237630Y387140D02*
X210550D01*
Y366060D01*
X237630D01*
Y387140D01*
D02*
G37*
G36*
X307000Y389127D02*
X304379Y388782D01*
X301937Y387770D01*
X299839Y386161D01*
X298230Y384063D01*
X297218Y381621D01*
X296873Y379000D01*
X297218Y376379D01*
X298230Y373937D01*
X299839Y371839D01*
X301937Y370230D01*
X304379Y369218D01*
X307000Y368873D01*
X309199Y369163D01*
X311371Y366991D01*
Y355366D01*
X310101Y354935D01*
X309161Y356161D01*
X307063Y357770D01*
X304621Y358782D01*
X304500Y358797D01*
Y349000D01*
Y339202D01*
X304621Y339218D01*
X307063Y340230D01*
X309161Y341839D01*
X310101Y343065D01*
X311371Y342634D01*
Y307822D01*
X310101Y307436D01*
X310083Y307463D01*
X310083Y307463D01*
X290418Y327128D01*
Y376956D01*
X291008Y377838D01*
X291438Y380000D01*
X291008Y382162D01*
X289783Y383994D01*
X287951Y385219D01*
X285789Y385648D01*
X283628Y385219D01*
X281795Y383994D01*
X280571Y382162D01*
X280141Y380000D01*
X280571Y377838D01*
X281160Y376956D01*
Y325211D01*
X281160Y325211D01*
X281513Y323439D01*
X282516Y321937D01*
X299693Y304761D01*
X299052Y303605D01*
X297108Y303219D01*
X295276Y301994D01*
X294051Y300162D01*
X293621Y298000D01*
X293647Y297871D01*
X289661Y293885D01*
X244000D01*
X242513Y293589D01*
X241253Y292747D01*
X238900Y290394D01*
X237630Y290920D01*
Y295771D01*
X243508D01*
X243508Y295771D01*
X245280Y296123D01*
X246781Y297127D01*
X249607Y299953D01*
X251379Y299218D01*
X254000Y298873D01*
X256621Y299218D01*
X259063Y300230D01*
X261161Y301839D01*
X262770Y303937D01*
X263782Y306379D01*
X264127Y309000D01*
X263782Y311621D01*
X262770Y314063D01*
X261161Y316161D01*
X259063Y317770D01*
X256621Y318782D01*
X254000Y319127D01*
X251379Y318782D01*
X248937Y317770D01*
X246839Y316161D01*
X245230Y314063D01*
X244218Y311621D01*
X243873Y309000D01*
X244070Y307508D01*
X241591Y305029D01*
X237630D01*
Y310940D01*
X210550D01*
Y289860D01*
X236570D01*
X237096Y288590D01*
X234121Y285615D01*
X230820D01*
X230445Y285540D01*
X210550D01*
Y264460D01*
X235021D01*
X235406Y263190D01*
X234743Y262747D01*
X232136Y260140D01*
X210550D01*
Y239060D01*
X237630D01*
Y254646D01*
X239099Y256115D01*
X292794D01*
X293280Y254942D01*
X280927Y242590D01*
X248000D01*
X247009Y242393D01*
X246169Y241831D01*
X238654Y234316D01*
X237630Y234740D01*
Y234740D01*
X210550D01*
Y213660D01*
X236410D01*
Y209340D01*
X210550D01*
Y188260D01*
X236799Y188260D01*
X236801Y188260D01*
X236851Y188141D01*
X237328Y186990D01*
X237169Y186831D01*
X236607Y185991D01*
X236410Y185000D01*
Y183940D01*
X210550D01*
Y163550D01*
X188000Y141000D01*
X187871Y141026D01*
X185709Y140596D01*
X183877Y139371D01*
X182652Y137539D01*
X182429Y136414D01*
X181050Y135996D01*
X175927Y141119D01*
X174425Y142123D01*
X172654Y142475D01*
X172654Y142475D01*
X158044D01*
X157162Y143065D01*
X155000Y143495D01*
X152838Y143065D01*
X151006Y141840D01*
X149781Y140008D01*
X149352Y137846D01*
X149781Y135684D01*
X151006Y133852D01*
X152838Y132627D01*
X155000Y132198D01*
X157162Y132627D01*
X158044Y133217D01*
X170737D01*
X242998Y60956D01*
X242145Y59360D01*
X241199Y56242D01*
X240880Y53000D01*
X241199Y49758D01*
X242145Y46640D01*
X243681Y43766D01*
X245748Y41248D01*
X248266Y39181D01*
X251140Y37645D01*
X254258Y36699D01*
X257500Y36380D01*
X274500D01*
X277742Y36699D01*
X280860Y37645D01*
X283734Y39181D01*
X286252Y41248D01*
X288319Y43766D01*
X289855Y46640D01*
X290801Y49758D01*
X291120Y53000D01*
X290801Y56242D01*
X289855Y59360D01*
X288319Y62234D01*
X286252Y64752D01*
X283734Y66819D01*
X280860Y68355D01*
X277742Y69301D01*
X274500Y69620D01*
X257500D01*
X254258Y69301D01*
X251140Y68355D01*
X249544Y67502D01*
X188489Y128557D01*
X188908Y129935D01*
X190033Y130159D01*
X191865Y131383D01*
X193089Y133216D01*
X193519Y135377D01*
X193494Y135506D01*
X218319Y160331D01*
X219161Y161591D01*
X219413Y162860D01*
X236410D01*
Y130000D01*
X236607Y129009D01*
X237169Y128169D01*
X246169Y119169D01*
X246527Y118930D01*
X246628Y118756D01*
X246774Y117599D01*
X246724Y117387D01*
X237169Y107831D01*
X236607Y106991D01*
X236410Y106000D01*
Y84000D01*
X236607Y83009D01*
X237169Y82169D01*
X246169Y73169D01*
X247009Y72607D01*
X248000Y72410D01*
X278000D01*
X278991Y72607D01*
X279831Y73169D01*
X297073Y90410D01*
X333000D01*
X333991Y90607D01*
X334831Y91169D01*
X343831Y100169D01*
X344393Y101009D01*
X344590Y102000D01*
Y123000D01*
X344393Y123991D01*
X343831Y124831D01*
X333831Y134831D01*
X333313Y135178D01*
X333444Y136492D01*
X333447Y136499D01*
X333991Y136607D01*
X334831Y137169D01*
X343831Y146169D01*
X344393Y147009D01*
X344590Y148000D01*
Y200897D01*
X345219Y201838D01*
X345648Y204000D01*
X345219Y206162D01*
X343994Y207994D01*
X342162Y209219D01*
X340000Y209648D01*
X338344Y209319D01*
X334831Y212831D01*
X333991Y213393D01*
X333447Y213501D01*
X333444Y213508D01*
X333313Y214822D01*
X333831Y215169D01*
X343831Y225169D01*
X344393Y226009D01*
X344590Y227000D01*
Y242257D01*
X345763Y242743D01*
X381385Y207121D01*
Y177067D01*
X381276Y176994D01*
X380051Y175162D01*
X379621Y173000D01*
X380051Y170838D01*
X381276Y169006D01*
X383108Y167781D01*
X385270Y167351D01*
X387431Y167781D01*
X389264Y169006D01*
X390489Y170838D01*
X390919Y173000D01*
X390489Y175162D01*
X389264Y176994D01*
X389155Y177067D01*
Y208730D01*
X388859Y210217D01*
X388017Y211477D01*
X345574Y253920D01*
X345906Y255384D01*
X347309Y256321D01*
X348534Y258154D01*
X348964Y260315D01*
X348534Y262477D01*
X348327Y262787D01*
Y271302D01*
X348327Y271302D01*
X347975Y273073D01*
X346971Y274575D01*
X346971Y274575D01*
X320629Y300917D01*
Y303097D01*
X321899Y303415D01*
X323016Y301325D01*
X324958Y298958D01*
X327325Y297016D01*
X330024Y295574D01*
X332954Y294685D01*
X336000Y294385D01*
X339046Y294685D01*
X341976Y295574D01*
X344675Y297016D01*
X347042Y298958D01*
X348983Y301325D01*
X350426Y304024D01*
X351315Y306954D01*
X351615Y310000D01*
X351315Y313046D01*
X350426Y315976D01*
X348983Y318675D01*
X347042Y321042D01*
X344675Y322984D01*
X341976Y324426D01*
X339046Y325315D01*
X336000Y325615D01*
X332954Y325315D01*
X330024Y324426D01*
X327325Y322984D01*
X324958Y321042D01*
X323016Y318675D01*
X321899Y316585D01*
X320629Y316903D01*
Y368908D01*
X320629Y368908D01*
X320277Y370680D01*
X319273Y372181D01*
X319273Y372181D01*
X316282Y375173D01*
X316782Y376379D01*
X317127Y379000D01*
X316782Y381621D01*
X315770Y384063D01*
X314161Y386161D01*
X312063Y387770D01*
X309621Y388782D01*
X307000Y389127D01*
D02*
G37*
G36*
X299500Y358797D02*
X299379Y358782D01*
X296937Y357770D01*
X294839Y356161D01*
X293230Y354063D01*
X292218Y351621D01*
X292202Y351500D01*
X299500D01*
Y358797D01*
D02*
G37*
G36*
X237630Y361740D02*
X210550D01*
Y340660D01*
X237630D01*
Y361740D01*
D02*
G37*
G36*
X299500Y346500D02*
X292202D01*
X292218Y346379D01*
X293230Y343937D01*
X294839Y341839D01*
X296937Y340230D01*
X299379Y339218D01*
X299500Y339202D01*
Y346500D01*
D02*
G37*
G36*
X237630Y336340D02*
X210550D01*
Y315260D01*
X237630D01*
Y336340D01*
D02*
G37*
G36*
X390000Y325615D02*
X386954Y325315D01*
X384024Y324426D01*
X381325Y322984D01*
X378958Y321042D01*
X377016Y318675D01*
X375574Y315976D01*
X374685Y313046D01*
X374385Y310000D01*
X374685Y306954D01*
X375574Y304024D01*
X377016Y301325D01*
X378958Y298958D01*
X381325Y297016D01*
X384024Y295574D01*
X386954Y294685D01*
X390000Y294385D01*
X393046Y294685D01*
X395976Y295574D01*
X398675Y297016D01*
X401042Y298958D01*
X402984Y301325D01*
X404426Y304024D01*
X405315Y306954D01*
X405615Y310000D01*
X405315Y313046D01*
X404426Y315976D01*
X402984Y318675D01*
X401042Y321042D01*
X398675Y322984D01*
X395976Y324426D01*
X393046Y325315D01*
X390000Y325615D01*
D02*
G37*
G36*
X67450Y310940D02*
X40370D01*
Y289860D01*
X67450D01*
Y296515D01*
X140991D01*
X159569Y277937D01*
X159542Y277748D01*
X158191Y277302D01*
X157747Y277747D01*
X156487Y278589D01*
X155000Y278885D01*
X67440D01*
Y285540D01*
X40360D01*
Y264757D01*
X40360Y264757D01*
X40360D01*
X39210Y264367D01*
X38463Y264219D01*
X36631Y262994D01*
X35406Y261162D01*
X34976Y259000D01*
X35406Y256838D01*
X36631Y255006D01*
X38463Y253781D01*
X40370Y253402D01*
Y239870D01*
X40079Y238908D01*
X39326Y238514D01*
X37838Y238218D01*
X36006Y236994D01*
X34781Y235162D01*
X34351Y233000D01*
X34781Y230838D01*
X36006Y229006D01*
X37838Y227781D01*
X40000Y227351D01*
X40370Y227048D01*
Y213660D01*
X67450D01*
Y234740D01*
X45864D01*
X45519Y235085D01*
X45069Y235385D01*
X43994Y236994D01*
X42803Y237790D01*
X43188Y239060D01*
X67450D01*
Y260140D01*
X46047D01*
X45844Y261162D01*
X44619Y262994D01*
X44326Y263190D01*
X44711Y264460D01*
X67440D01*
Y271115D01*
X153391D01*
X160377Y264129D01*
X160352Y264000D01*
X160781Y261838D01*
X162006Y260006D01*
X163838Y258781D01*
X166000Y258351D01*
X168162Y258781D01*
X169994Y260006D01*
X171219Y261838D01*
X171649Y264000D01*
X171219Y266162D01*
X169994Y267994D01*
X168162Y269219D01*
X166386Y269572D01*
X166003Y270155D01*
X166397Y271197D01*
X166673Y271485D01*
X168162Y271781D01*
X169994Y273006D01*
X171219Y274838D01*
X171649Y277000D01*
X171219Y279162D01*
X169994Y280994D01*
X168162Y282219D01*
X166000Y282649D01*
X165871Y282623D01*
X145347Y303147D01*
X144087Y303989D01*
X142600Y304285D01*
X67450D01*
Y310940D01*
D02*
G37*
G36*
X229000Y158649D02*
X226838Y158219D01*
X225006Y156994D01*
X223781Y155162D01*
X223437Y153431D01*
X215546Y145540D01*
X215000Y145648D01*
X212838Y145219D01*
X211006Y143994D01*
X209781Y142162D01*
X209352Y140000D01*
X209781Y137838D01*
X211006Y136006D01*
X212838Y134781D01*
X215000Y134352D01*
X217162Y134781D01*
X218994Y136006D01*
X220219Y137838D01*
X220563Y139569D01*
X228454Y147460D01*
X229000Y147352D01*
X231162Y147781D01*
X232994Y149006D01*
X234219Y150838D01*
X234648Y153000D01*
X234219Y155162D01*
X232994Y156994D01*
X231162Y158219D01*
X229000Y158649D01*
D02*
G37*
G36*
X15500Y91798D02*
Y84500D01*
X22798D01*
X22782Y84621D01*
X21770Y87063D01*
X20161Y89161D01*
X18063Y90770D01*
X15621Y91782D01*
X15500Y91798D01*
D02*
G37*
G36*
X22798Y79500D02*
X15500D01*
Y72203D01*
X15621Y72218D01*
X18063Y73230D01*
X20161Y74839D01*
X21770Y76937D01*
X22782Y79379D01*
X22798Y79500D01*
D02*
G37*
G36*
X323500Y86620D02*
X316270D01*
Y71270D01*
X339995D01*
X339801Y73242D01*
X338855Y76360D01*
X337319Y79234D01*
X335252Y81752D01*
X332734Y83819D01*
X329860Y85355D01*
X326742Y86301D01*
X323500Y86620D01*
D02*
G37*
G36*
X313730D02*
X306500D01*
X303258Y86301D01*
X300140Y85355D01*
X297266Y83819D01*
X294748Y81752D01*
X292681Y79234D01*
X291145Y76360D01*
X290199Y73242D01*
X290005Y71270D01*
X313730D01*
Y86620D01*
D02*
G37*
G36*
X108690Y92285D02*
Y92285D01*
X96610D01*
Y71955D01*
X108690D01*
Y71955D01*
X109310D01*
Y71955D01*
X120740D01*
X121390Y71955D01*
X122660Y71955D01*
X130749D01*
X131235Y70782D01*
X130727Y70273D01*
X130060Y69275D01*
X128790Y69660D01*
Y70340D01*
X89210D01*
Y39660D01*
X128790D01*
Y43340D01*
X130060Y43725D01*
X130727Y42727D01*
X134173Y39281D01*
X133612Y38045D01*
X133018Y38045D01*
X122660D01*
X122010Y38045D01*
Y38045D01*
X121390D01*
Y38045D01*
X109310D01*
Y38045D01*
X108690D01*
Y38045D01*
X96610D01*
Y38045D01*
X95990D01*
Y38045D01*
X83910D01*
Y20344D01*
X81452D01*
X80290Y21506D01*
Y29040D01*
X66117D01*
X64879Y29250D01*
X64527Y31021D01*
X63523Y32523D01*
X63523Y32523D01*
X58040Y38006D01*
Y42540D01*
X56129D01*
Y43960D01*
X79040D01*
Y60053D01*
X79129Y60500D01*
X79129Y60500D01*
Y64160D01*
X79452Y64644D01*
X79994Y65006D01*
X81219Y66838D01*
X81649Y69000D01*
X81219Y71162D01*
X79994Y72994D01*
X78162Y74219D01*
X76000Y74648D01*
X73838Y74219D01*
X72006Y72994D01*
X70781Y71162D01*
X70352Y69000D01*
X70517Y68169D01*
X70223Y67730D01*
X69871Y65959D01*
X69074Y65040D01*
X28960D01*
Y43960D01*
X46871D01*
Y42540D01*
X44960D01*
Y31460D01*
X51494D01*
X55621Y27333D01*
Y23750D01*
X55621Y23750D01*
X55710Y23303D01*
Y14960D01*
X73744D01*
X76262Y12442D01*
X76262Y12442D01*
X77764Y11438D01*
X79535Y11086D01*
X79535Y11086D01*
X120730D01*
X120730Y11086D01*
X122502Y11438D01*
X124004Y12442D01*
X126832Y15270D01*
X126832Y15270D01*
X127836Y16772D01*
X127891Y17049D01*
X128556Y17715D01*
X134090D01*
Y36885D01*
X134090Y37568D01*
X135326Y38128D01*
X139740Y33713D01*
X139254Y32540D01*
X136710D01*
Y16460D01*
X155290D01*
Y19871D01*
X164120D01*
X164120Y19871D01*
X165891Y20223D01*
X167393Y21227D01*
X167542Y21376D01*
X168500D01*
X168500Y21376D01*
X168947Y21465D01*
X174040D01*
Y37295D01*
X163960D01*
Y30303D01*
X163854Y30282D01*
X162352Y29278D01*
X162203Y29129D01*
X155290D01*
Y32540D01*
X150629D01*
Y34000D01*
X150629Y34000D01*
X150277Y35771D01*
X149273Y37273D01*
X138629Y47917D01*
Y65083D01*
X140167Y66621D01*
X142250D01*
X142250Y66621D01*
X142697Y66710D01*
X151040D01*
Y68371D01*
X156000D01*
X156000Y68371D01*
X157771Y68723D01*
X159273Y69727D01*
X160417Y70871D01*
X168704D01*
X168838Y70781D01*
X171000Y70352D01*
X173162Y70781D01*
X174994Y72006D01*
X176218Y73838D01*
X176649Y76000D01*
X176218Y78162D01*
X174994Y79994D01*
X173162Y81219D01*
X171000Y81649D01*
X168838Y81219D01*
X167208Y80129D01*
X158500D01*
X158500Y80129D01*
X156729Y79777D01*
X155227Y78773D01*
X154083Y77629D01*
X151040D01*
Y79290D01*
X136960D01*
Y75622D01*
X136479Y75527D01*
X135360Y74779D01*
X134090Y75308D01*
Y92285D01*
X122660D01*
X122010Y92285D01*
X120740Y92285D01*
X109310D01*
Y92285D01*
X108690D01*
D02*
G37*
G36*
X339995Y68730D02*
X316270D01*
Y53380D01*
X323500D01*
X326742Y53699D01*
X329860Y54645D01*
X332734Y56181D01*
X335252Y58248D01*
X337319Y60766D01*
X338855Y63640D01*
X339801Y66758D01*
X339995Y68730D01*
D02*
G37*
G36*
X313730D02*
X290005D01*
X290199Y66758D01*
X291145Y63640D01*
X292681Y60766D01*
X294748Y58248D01*
X297266Y56181D01*
X300140Y54645D01*
X303258Y53699D01*
X306500Y53380D01*
X313730D01*
Y68730D01*
D02*
G37*
%LPD*%
G36*
X312727Y295727D02*
X339069Y269385D01*
Y263932D01*
X338384Y262906D01*
X336920Y262574D01*
X336747Y262747D01*
X335487Y263589D01*
X334000Y263885D01*
X238662D01*
X237630Y264460D01*
Y278417D01*
X238477Y278983D01*
X245609Y286115D01*
X273741D01*
X274126Y284845D01*
X272852Y283994D01*
X271628Y282162D01*
X271197Y280000D01*
X271628Y277838D01*
X272852Y276006D01*
X274685Y274781D01*
X276846Y274352D01*
X279008Y274781D01*
X279890Y275371D01*
X295000D01*
X295000Y275371D01*
X296771Y275723D01*
X298273Y276727D01*
X310083Y288537D01*
X310083Y288537D01*
X311087Y290039D01*
X311439Y291810D01*
X311439Y291810D01*
Y295368D01*
X312709Y295754D01*
X312727Y295727D01*
D02*
G37*
G36*
X342000Y246506D02*
Y227000D01*
X332000Y217000D01*
X295000D01*
X278000Y200000D01*
X248000D01*
X239000Y209000D01*
Y231000D01*
X248000Y240000D01*
X282000D01*
X298115Y256115D01*
X332391D01*
X342000Y246506D01*
D02*
G37*
G36*
Y202000D02*
Y148000D01*
X333000Y139000D01*
X296000D01*
X278000Y121000D01*
X248000D01*
X239000Y130000D01*
Y185000D01*
X248000Y194000D01*
X281000D01*
X298000Y211000D01*
X333000D01*
X342000Y202000D01*
D02*
G37*
G36*
Y123000D02*
Y102000D01*
X333000Y93000D01*
X296000D01*
X278000Y75000D01*
X248000D01*
X239000Y84000D01*
Y106000D01*
X249000Y116000D01*
X283000D01*
X300000Y133000D01*
X332000D01*
X342000Y123000D01*
D02*
G37*
D10*
X16998Y43669D02*
X7002D01*
Y48668D01*
X8668Y50334D01*
X12000D01*
X13666Y48668D01*
Y43669D01*
Y47002D02*
X16998Y50334D01*
X8668Y53666D02*
X7002Y55332D01*
Y58664D01*
X8668Y60331D01*
X10334D01*
X12000Y58664D01*
Y56998D01*
Y58664D01*
X13666Y60331D01*
X15332D01*
X16998Y58664D01*
Y55332D01*
X15332Y53666D01*
X19664Y211518D02*
X9668D01*
Y206520D01*
X11334Y204854D01*
X14666D01*
X16332Y206520D01*
Y211518D01*
X9668Y214851D02*
X14666D01*
X16332Y216517D01*
Y221515D01*
X9668D01*
X16332Y224848D02*
Y228180D01*
Y226514D01*
X9668D01*
Y224848D01*
Y239843D02*
Y234844D01*
X11334Y233178D01*
X14666D01*
X16332Y234844D01*
Y239843D01*
Y243175D02*
X6335D01*
X13000D02*
X9668Y248173D01*
X13000Y243175D02*
X16332Y248173D01*
Y253172D02*
Y258170D01*
X14666Y259836D01*
X13000Y258170D01*
Y254838D01*
X11334Y253172D01*
X9668Y254838D01*
Y259836D01*
X6335Y263169D02*
X16332D01*
X11334D01*
X9668Y264835D01*
Y268167D01*
X11334Y269833D01*
X16332D01*
Y273165D02*
Y276498D01*
Y274832D01*
X9668D01*
Y273165D01*
X16332Y283162D02*
X8002D01*
X11334D01*
Y281496D01*
Y284828D01*
Y283162D01*
X8002D01*
X6335Y284828D01*
X8002Y291493D02*
X9668D01*
Y289827D01*
Y293159D01*
Y291493D01*
X14666D01*
X16332Y293159D01*
X9668Y298157D02*
X14666D01*
X16332Y299823D01*
Y304822D01*
X9668D01*
X16332Y308154D02*
Y311486D01*
Y309820D01*
X9668D01*
Y308154D01*
X16332Y316485D02*
X9668D01*
Y321483D01*
X11334Y323149D01*
X16332D01*
Y328148D02*
Y331480D01*
X14666Y333146D01*
X11334D01*
X9668Y331480D01*
Y328148D01*
X11334Y326482D01*
X14666D01*
X16332Y328148D01*
D11*
X254000Y309000D02*
D03*
X307000Y379000D02*
D03*
X24000Y349000D02*
D03*
X302000D02*
D03*
X13000Y82000D02*
D03*
X147000Y104000D02*
D03*
D12*
X169000Y52620D02*
D03*
Y29380D02*
D03*
D13*
X224090Y198800D02*
D03*
Y224200D02*
D03*
Y249600D02*
D03*
Y275000D02*
D03*
Y300400D02*
D03*
Y351200D02*
D03*
Y376600D02*
D03*
X53910Y325800D02*
D03*
Y351200D02*
D03*
Y376600D02*
D03*
X224090Y325800D02*
D03*
Y173400D02*
D03*
X53910D02*
D03*
Y198800D02*
D03*
Y224200D02*
D03*
Y249600D02*
D03*
X53900Y275000D02*
D03*
X53910Y300400D02*
D03*
D14*
X12000Y161500D02*
D03*
Y140500D02*
D03*
X31000D02*
D03*
Y161500D02*
D03*
D15*
X315000Y158000D02*
D03*
Y192000D02*
D03*
X266000Y219000D02*
D03*
X315000Y236000D02*
D03*
Y114000D02*
D03*
X266000Y97000D02*
D03*
Y175000D02*
D03*
Y141000D02*
D03*
X315000Y70000D02*
D03*
X266000Y53000D02*
D03*
D16*
X13000Y192154D02*
D03*
Y175846D02*
D03*
X30000Y192154D02*
D03*
Y175846D02*
D03*
D17*
X74000Y22000D02*
D03*
X62000D02*
D03*
D18*
X93846Y104000D02*
D03*
X110154D02*
D03*
Y125000D02*
D03*
X93846D02*
D03*
D19*
X76500Y37000D02*
D03*
X51500D02*
D03*
D20*
X60500Y115000D02*
D03*
X27500D02*
D03*
D21*
X54000Y54500D02*
D03*
Y93500D02*
D03*
D22*
X109000Y55000D02*
D03*
D23*
X89950Y82120D02*
D03*
X102650D02*
D03*
X115350D02*
D03*
X128050D02*
D03*
Y27880D02*
D03*
X115350D02*
D03*
X102650D02*
D03*
X89950D02*
D03*
D24*
X146000Y24500D02*
D03*
Y57500D02*
D03*
D25*
X144000Y73000D02*
D03*
Y85000D02*
D03*
X129000Y112000D02*
D03*
Y100000D02*
D03*
X75000Y123000D02*
D03*
Y111000D02*
D03*
D37*
X252108Y309000D02*
X254000D01*
X243508Y300400D02*
X252108Y309000D01*
X224090Y300400D02*
X243508D01*
X307000Y377908D02*
Y379000D01*
Y377908D02*
X316000Y368908D01*
X306810Y291810D02*
Y304190D01*
X295000Y280000D02*
X306810Y291810D01*
X276846Y280000D02*
X295000D01*
X285789Y325211D02*
Y380000D01*
Y325211D02*
X306810Y304190D01*
X316000Y299000D02*
X343698Y271302D01*
X316000Y299000D02*
Y368908D01*
X343698Y260698D02*
Y271302D01*
X343315Y260315D02*
X343698Y260698D01*
X164120Y24500D02*
X165625Y26005D01*
X146000Y24500D02*
X164120D01*
X169000Y26505D02*
Y29380D01*
X168500Y26005D02*
X169000Y26505D01*
X165625Y26005D02*
X168500D01*
X37780Y186653D02*
X38163Y186271D01*
X30000Y191789D02*
X35136Y186653D01*
X37780D01*
X75617Y68617D02*
X76000Y69000D01*
X75617Y67076D02*
Y68617D01*
X74500Y65959D02*
X75617Y67076D01*
X172654Y137846D02*
X257500Y53000D01*
X155000Y137846D02*
X172654D01*
X27000Y314000D02*
X38000Y325000D01*
X158500Y75500D02*
X169959D01*
X170459Y76000D01*
X171000D01*
X257500Y53000D02*
X266000D01*
X30000Y191789D02*
Y192154D01*
X27000Y195154D02*
Y314000D01*
Y195154D02*
X30000Y192154D01*
X54510Y376000D02*
X105000D01*
X53910Y376600D02*
X54510Y376000D01*
X105000D02*
X181000Y300000D01*
Y214449D02*
Y300000D01*
X101402Y134851D02*
X181000Y214449D01*
X38000Y325000D02*
Y335000D01*
X24000Y349000D02*
X38000Y335000D01*
Y325000D02*
X53110D01*
X53910Y325800D01*
X13000Y192154D02*
X30000D01*
X144000Y73000D02*
X156000D01*
X142250Y71250D02*
X144000Y73000D01*
X156000D02*
X158500Y75500D01*
X134000Y46000D02*
Y67000D01*
Y46000D02*
X146000Y34000D01*
X134000Y67000D02*
X138250Y71250D01*
X146000Y24500D02*
Y34000D01*
X138250Y71250D02*
X142250D01*
X139000Y112000D02*
X147000Y104000D01*
X129000Y112000D02*
X139000D01*
X54000Y54500D02*
X68500D01*
X74500Y60500D02*
Y65959D01*
X68500Y54500D02*
X74500Y60500D01*
X51500Y52000D02*
X54000Y54500D01*
X102650Y82120D02*
X115350D01*
X51500Y37000D02*
Y52000D01*
X60250Y23750D02*
Y29250D01*
Y23750D02*
X62000Y22000D01*
X51500Y37000D02*
X52500D01*
X60250Y29250D01*
X123559Y19264D02*
X128050Y23755D01*
X123559Y18543D02*
Y19264D01*
X79535Y15715D02*
X120730D01*
X74000Y21250D02*
X79535Y15715D01*
X128050Y23755D02*
Y27880D01*
X120730Y15715D02*
X123559Y18543D01*
X74000Y21250D02*
Y22000D01*
X110519Y125000D02*
X121769Y113750D01*
X127250D01*
X110154Y125000D02*
X110519D01*
X127250Y113750D02*
X129000Y112000D01*
X109789Y125000D02*
X110154D01*
X106479Y128311D02*
Y129774D01*
X101402Y134851D02*
X106479Y129774D01*
X72180Y134851D02*
X101402D01*
X64000Y126671D02*
X72180Y134851D01*
X64000Y118500D02*
Y126671D01*
X106479Y128311D02*
X109789Y125000D01*
X60500Y115000D02*
X64000Y118500D01*
X93846Y104000D02*
Y125000D01*
X92846Y124000D02*
X93846Y125000D01*
X75000Y123000D02*
X76000Y124000D01*
X92846D01*
X60500Y99500D02*
Y114500D01*
X64000Y111000D02*
X75000D01*
X60500Y114500D02*
Y115000D01*
Y114500D02*
X64000Y111000D01*
X54500Y93500D02*
X60500Y99500D01*
X54000Y93500D02*
X54500D01*
D38*
X237490Y260000D02*
X334000D01*
X385270Y173000D02*
Y208730D01*
X334000Y260000D02*
X385270Y208730D01*
X227090Y249600D02*
X237490Y260000D01*
X224090Y249600D02*
X227090D01*
X244000Y290000D02*
X291270D01*
X230820Y281730D02*
X235730D01*
X224090Y275000D02*
X230820Y281730D01*
X235730D02*
X244000Y290000D01*
X291270D02*
X299270Y298000D01*
X215572Y166670D02*
X222302Y173400D01*
X224090D01*
X215572Y163078D02*
Y166670D01*
X187871Y135377D02*
X215572Y163078D01*
X215500Y140000D02*
X228500Y153000D01*
X229000D01*
X215000Y140000D02*
X215500D01*
X13000Y140500D02*
X17230Y136270D01*
Y133770D02*
Y136270D01*
Y133770D02*
X20000Y131000D01*
X39000D01*
X53900Y275000D02*
X155000D01*
X166000Y264000D01*
X142600Y300400D02*
X166000Y277000D01*
X53910Y300400D02*
X142600D01*
X39000Y131000D02*
X70000Y162000D01*
Y185710D01*
X41510Y259000D02*
X50910Y249600D01*
X40625Y259000D02*
X41510D01*
X50910Y249600D02*
X53910D01*
X40662Y232338D02*
X42772D01*
X50910Y224200D01*
X53910D01*
X40000Y233000D02*
X40662Y232338D01*
X13000Y161500D02*
Y175846D01*
X30000Y161500D02*
Y175846D01*
X56910Y198800D02*
X70000Y185710D01*
X31000Y140500D02*
X44180Y153680D01*
X53910Y198800D02*
X56910D01*
X44180Y153680D02*
Y166670D01*
X30000Y140500D02*
X31000D01*
X44180Y166670D02*
X50910Y173400D01*
X53910D01*
D39*
X390000Y310000D02*
D03*
X336000D02*
D03*
D40*
X399000Y379000D02*
D03*
Y21000D02*
D03*
X21000D02*
D03*
Y379000D02*
D03*
D41*
X252000Y275000D02*
D03*
X406000Y326000D02*
D03*
Y246000D02*
D03*
Y86000D02*
D03*
X396000Y346000D02*
D03*
X386000Y246000D02*
D03*
X396000Y226000D02*
D03*
Y106000D02*
D03*
X386000Y86000D02*
D03*
X366000Y366000D02*
D03*
Y286000D02*
D03*
Y206000D02*
D03*
Y46000D02*
D03*
X356000Y386000D02*
D03*
X346000Y366000D02*
D03*
X356000Y66000D02*
D03*
X346000Y46000D02*
D03*
X356000Y26000D02*
D03*
X336000Y386000D02*
D03*
X326000Y46000D02*
D03*
X336000Y26000D02*
D03*
X306000Y46000D02*
D03*
X316000Y26000D02*
D03*
X296000D02*
D03*
X276000Y306000D02*
D03*
Y26000D02*
D03*
X256000D02*
D03*
X236000D02*
D03*
X216000D02*
D03*
X186000Y366000D02*
D03*
X196000Y346000D02*
D03*
X186000Y326000D02*
D03*
X196000Y306000D02*
D03*
X186000Y166000D02*
D03*
Y86000D02*
D03*
X196000Y26000D02*
D03*
X166000Y366000D02*
D03*
X176000Y346000D02*
D03*
X156000Y226000D02*
D03*
X136000D02*
D03*
X126000Y206000D02*
D03*
X116000Y226000D02*
D03*
X106000Y206000D02*
D03*
X116000Y186000D02*
D03*
X96000Y226000D02*
D03*
X86000Y206000D02*
D03*
X96000Y186000D02*
D03*
Y146000D02*
D03*
X76000Y226000D02*
D03*
Y146000D02*
D03*
X16000Y106000D02*
D03*
X276846Y280000D02*
D03*
X285789Y380000D02*
D03*
X343315Y260315D02*
D03*
X304000Y331000D02*
D03*
X187871Y135377D02*
D03*
X231000Y121000D02*
D03*
X195000Y246000D02*
D03*
X299270Y298000D02*
D03*
X385270Y173000D02*
D03*
X38163Y186271D02*
D03*
X283000Y172000D02*
D03*
Y180000D02*
D03*
X76000Y69000D02*
D03*
X298000Y185000D02*
D03*
X229000Y153000D02*
D03*
X215000Y140000D02*
D03*
X268000Y128460D02*
D03*
X275000D02*
D03*
X280433Y131814D02*
D03*
X262000Y130000D02*
D03*
X256000D02*
D03*
X224000Y326000D02*
D03*
X38000Y325000D02*
D03*
X171000Y76000D02*
D03*
X155000Y137846D02*
D03*
X166000Y264000D02*
D03*
Y277000D02*
D03*
X40625Y259000D02*
D03*
X40000Y233000D02*
D03*
X340000Y204000D02*
D03*
X265000Y151000D02*
D03*
X271000D02*
D03*
X277000D02*
D03*
X298000Y191000D02*
D03*
X299000Y165000D02*
D03*
Y159000D02*
D03*
Y153000D02*
D03*
X269000Y184000D02*
D03*
X277000Y169000D02*
D03*
Y177000D02*
D03*
Y184000D02*
D03*
X269000Y177000D02*
D03*
Y169000D02*
D03*
X329641Y108879D02*
D03*
Y118879D02*
D03*
X300000Y109000D02*
D03*
X320000Y119000D02*
D03*
X310000D02*
D03*
X300000D02*
D03*
X310000Y109000D02*
D03*
X320000D02*
D03*
X320000Y231000D02*
D03*
X310000D02*
D03*
X300000Y241000D02*
D03*
X310000D02*
D03*
X320000D02*
D03*
X300000Y231000D02*
D03*
X329641Y240879D02*
D03*
Y230879D02*
D03*
X115350Y27880D02*
D03*
X146000Y24500D02*
D03*
X128050Y82120D02*
D03*
X93846Y104000D02*
D03*
X89950Y27880D02*
D03*
M02*
