G04*
G04 #@! TF.GenerationSoftware,Altium Limited,Altium Designer,24.9.1 (31)*
G04*
G04 Layer_Color=65535*
%FSLAX44Y44*%
%MOMM*%
G71*
G04*
G04 #@! TF.SameCoordinates,72FE2189-96E8-42F3-8E64-FE2F012302BB*
G04*
G04*
G04 #@! TF.FilePolarity,Positive*
G04*
G01*
G75*
%ADD10C,0.2000*%
D10*
X396000Y62000D02*
Y124000D01*
Y204000D02*
Y266000D01*
X241000Y197000D02*
X280000D01*
X297000Y214000D01*
X228000Y118000D02*
X280000D01*
X297000Y135000D02*
X341000D01*
X280000Y118000D02*
X297000Y135000D01*
X280000Y75000D02*
X297000Y92000D01*
X341000D01*
X228000Y75000D02*
X280000D01*
X297000Y214000D02*
X341000D01*
X269664Y343332D02*
X267998Y344998D01*
X264666D01*
X263000Y343332D01*
Y336668D01*
X264666Y335002D01*
X267998D01*
X269664Y336668D01*
Y340000D01*
X266332D01*
X272997Y335002D02*
Y344998D01*
X279661Y335002D01*
Y344998D01*
X282994D02*
Y335002D01*
X287992D01*
X289658Y336668D01*
Y343332D01*
X287992Y344998D01*
X282994D01*
X402002Y66342D02*
X411998D01*
X407000D01*
Y73006D01*
X402002D01*
X411998D01*
Y76339D02*
X405334D01*
X402002Y79671D01*
X405334Y83003D01*
X411998D01*
X407000D01*
Y76339D01*
X402002Y86335D02*
X411998D01*
Y93000D01*
X402002Y96332D02*
X411998D01*
Y102997D01*
Y116326D02*
Y119658D01*
Y117992D01*
X402002D01*
X403668Y116326D01*
X402002Y206676D02*
X411998D01*
X407000D01*
Y213340D01*
X402002D01*
X411998D01*
Y216673D02*
X405334D01*
X402002Y220005D01*
X405334Y223337D01*
X411998D01*
X407000D01*
Y216673D01*
X402002Y226669D02*
X411998D01*
Y233334D01*
X402002Y236666D02*
X411998D01*
Y243331D01*
Y263324D02*
Y256660D01*
X405334Y263324D01*
X403668D01*
X402002Y261658D01*
Y258326D01*
X403668Y256660D01*
X249339Y32332D02*
X247673Y33998D01*
X244340D01*
X242674Y32332D01*
Y30666D01*
X244340Y29000D01*
X247673D01*
X249339Y27334D01*
Y25668D01*
X247673Y24002D01*
X244340D01*
X242674Y25668D01*
X259335Y33998D02*
X252671D01*
Y24002D01*
X259335D01*
X252671Y29000D02*
X256003D01*
X262668Y24002D02*
Y33998D01*
X269332Y24002D01*
Y33998D01*
X279329Y32332D02*
X277663Y33998D01*
X274331D01*
X272665Y32332D01*
Y30666D01*
X274331Y29000D01*
X277663D01*
X279329Y27334D01*
Y25668D01*
X277663Y24002D01*
X274331D01*
X272665Y25668D01*
X289326Y33998D02*
X282661D01*
Y24002D01*
X289326D01*
X282661Y29000D02*
X285994D01*
X268000Y379000D02*
X271332D01*
X269666D01*
Y388997D01*
X268000Y387331D01*
X282995Y379000D02*
X276331D01*
X282995Y385664D01*
Y387331D01*
X281329Y388997D01*
X277997D01*
X276331Y387331D01*
X286327Y388997D02*
Y382332D01*
X289660Y379000D01*
X292992Y382332D01*
Y388997D01*
X308335Y262332D02*
X306669Y263998D01*
X303337D01*
X301671Y262332D01*
Y255668D01*
X303337Y254002D01*
X306669D01*
X308335Y255668D01*
X311668Y263998D02*
Y254002D01*
Y259000D01*
X318332D01*
Y263998D01*
Y254002D01*
X328329D02*
X321665D01*
X328329Y260666D01*
Y262332D01*
X326663Y263998D01*
X323331D01*
X321665Y262332D01*
X230668Y92002D02*
X229002Y90336D01*
Y87003D01*
X230668Y85337D01*
X237332D01*
X238998Y87003D01*
Y90336D01*
X237332Y92002D01*
X229002Y95334D02*
X238998D01*
X234000D01*
Y101998D01*
X229002D01*
X238998D01*
Y105331D02*
Y108663D01*
Y106997D01*
X229002D01*
X230668Y105331D01*
X234000Y124506D02*
Y131170D01*
X230668Y127838D02*
X237332D01*
X238998Y134502D02*
Y137835D01*
Y136169D01*
X229002D01*
X230668Y134502D01*
X238998Y149498D02*
Y142833D01*
X232334Y149498D01*
X230668D01*
X229002Y147831D01*
Y144499D01*
X230668Y142833D01*
X229002Y152830D02*
X235666D01*
X238998Y156162D01*
X235666Y159494D01*
X229002D01*
X308335Y49332D02*
X306669Y50998D01*
X303337D01*
X301671Y49332D01*
Y42668D01*
X303337Y41002D01*
X306669D01*
X308335Y42668D01*
Y46000D01*
X305003D01*
X311668Y41002D02*
Y50998D01*
X318332Y41002D01*
Y50998D01*
X321665D02*
Y41002D01*
X326663D01*
X328329Y42668D01*
Y49332D01*
X326663Y50998D01*
X321665D01*
X7669Y101664D02*
X6003Y99998D01*
Y96666D01*
X7669Y95000D01*
X14334D01*
X16000Y96666D01*
Y99998D01*
X14334Y101664D01*
X11002D01*
Y98332D01*
X16000Y104997D02*
X6003D01*
X16000Y111661D01*
X6003D01*
Y114993D02*
X16000D01*
Y119992D01*
X14334Y121658D01*
X7669D01*
X6003Y119992D01*
Y114993D01*
X27669Y310000D02*
X26003Y311666D01*
Y314998D01*
X27669Y316665D01*
X29335D01*
X31002Y314998D01*
Y313332D01*
Y314998D01*
X32668Y316665D01*
X34334D01*
X36000Y314998D01*
Y311666D01*
X34334Y310000D01*
X26003Y319997D02*
X32668D01*
X36000Y323329D01*
X32668Y326661D01*
X26003D01*
X27669Y329994D02*
X26003Y331660D01*
Y334992D01*
X27669Y336658D01*
X29335D01*
X31002Y334992D01*
Y333326D01*
Y334992D01*
X32668Y336658D01*
X34334D01*
X36000Y334992D01*
Y331660D01*
X34334Y329994D01*
X141664Y128997D02*
X135000D01*
Y123998D01*
X138332Y125665D01*
X139998D01*
X141664Y123998D01*
Y120666D01*
X139998Y119000D01*
X136666D01*
X135000Y120666D01*
X144997Y128997D02*
Y122332D01*
X148329Y119000D01*
X151661Y122332D01*
Y128997D01*
X177002Y249350D02*
Y246018D01*
Y247684D01*
X185332D01*
X186998Y246018D01*
Y244352D01*
X185332Y242685D01*
X177002Y252682D02*
X186998D01*
Y259347D01*
X178668Y269343D02*
X177002Y267677D01*
Y264345D01*
X178668Y262679D01*
X185332D01*
X186998Y264345D01*
Y267677D01*
X185332Y269343D01*
X177002Y279340D02*
Y276008D01*
Y277674D01*
X185332D01*
X186998Y276008D01*
Y274342D01*
X185332Y272676D01*
X177002Y282673D02*
X186998D01*
Y289337D01*
X178668Y299334D02*
X177002Y297668D01*
Y294335D01*
X178668Y292669D01*
X185332D01*
X186998Y294335D01*
Y297668D01*
X185332Y299334D01*
X177002Y309331D02*
Y305998D01*
Y307665D01*
X185332D01*
X186998Y305998D01*
Y304332D01*
X185332Y302666D01*
X177002Y312663D02*
X186998D01*
Y319327D01*
X178668Y329324D02*
X177002Y327658D01*
Y324326D01*
X178668Y322660D01*
X185332D01*
X186998Y324326D01*
Y327658D01*
X185332Y329324D01*
X177002Y339321D02*
Y335989D01*
Y337655D01*
X185332D01*
X186998Y335989D01*
Y334323D01*
X185332Y332657D01*
X177002Y342653D02*
X186998D01*
Y349318D01*
X178668Y359314D02*
X177002Y357648D01*
Y354316D01*
X178668Y352650D01*
X185332D01*
X186998Y354316D01*
Y357648D01*
X185332Y359314D01*
M02*
